<?xml version="1.0" encoding="UTF-8"?>
<svg id="_圖層_2" data-name="圖層_2" xmlns="http://www.w3.org/2000/svg" xmlns:xlink="http://www.w3.org/1999/xlink" viewBox="0 0 255.12 21.88">
  <defs>
    <style>
      .cls-1 {
        font-family: MicrosoftJhengHeiBold, 'Microsoft JhengHei';
        font-size: 6px;
      }

      .cls-1, .cls-2 {
        fill: #1a476e;
      }

      .cls-3 {
        fill: #f39917;
        fill-rule: evenodd;
      }

      .cls-4 {
        fill: none;
      }

      .cls-5 {
        letter-spacing: 0em;
      }

      .cls-6 {
        letter-spacing: -.02em;
      }

      .cls-7 {
        letter-spacing: -.01em;
      }

      .cls-8 {
        letter-spacing: 0em;
      }

      .cls-9 {
        letter-spacing: -.11em;
      }

      .cls-10 {
        clip-path: url(#clippath);
      }

      .cls-11 {
        letter-spacing: -.08em;
      }
    </style>
    <clipPath id="clippath">
      <rect class="cls-4" x="0" width="255.1" height="21.88"/>
    </clipPath>
  </defs>
  <g class="cls-10">
    <g>
      <g>
        <path class="cls-2" d="M102.64,7.31h1.55v-1.16l.9.06c.17.01.25.06.25.13,0,.04-.06.11-.19.21v.77h1.68v.75h-1.68v1.48h1.81v.79h-4.66v-.79h1.9v-1.48h-1.55v-.75ZM103.64,3.23h3.09v-1.16l.94.08c.17,0,.26.05.26.12,0,.05-.07.12-.2.21v.75h3.35v.75h-3.35v1.14h4.17v.79h-9.24v-.79h4.08v-1.14h-3.09v-.75ZM107.61,7.31h1.64v-1.16l.9.06c.17.01.25.06.25.13,0,.04-.07.11-.19.21v.77h1.68v.75h-1.68v1.48h1.99v.79h-4.83v-.79h1.9v-1.48h-1.64v-.75Z"/>
        <path class="cls-2" d="M115.47,2.14l.82.34c.09.03.13.07.13.11,0,.09-.09.15-.27.2-.04.05-.07.1-.11.15.5.46,1.08.84,1.76,1.13v-1.07h2.2v-.97l.9.07c.17,0,.25.04.25.11,0,.05-.06.12-.19.22v.58h2.29v1.8h-.95v-1.12h-3.54v1.12h-.95v-.48l-.6.55c-.07-.04-.12-.08-.17-.11v.64h-.99v.9h1.42v.75h-1.42v2.28c.47-.08.94-.17,1.38-.26v.73c-.71.18-1.82.42-3.35.72-.07.1-.14.15-.22.15-.07,0-.11-.05-.12-.14l-.26-.86c.55-.05,1.09-.11,1.61-.19v-2.43h-1.34v-.75h1.34v-.9h-.82v-.53c-.12.11-.24.21-.37.31l-.67-.58c.5-.38.93-.76,1.27-1.14.32-.35.65-.79.97-1.31ZM114.27,7.46c.21.49.39.97.55,1.43l-.7.37c-.17-.49-.37-.99-.59-1.48l.74-.32ZM114.52,4.65h2.34c-.49-.34-.92-.71-1.28-1.1-.19.22-.36.42-.52.58-.16.17-.34.35-.54.52ZM116.82,7.31l.7.31c.1.04.15.08.15.12,0,.07-.06.13-.19.18l-.55,1.08-.72-.29.62-1.4ZM117.76,5.33h1.82c.09-.39.16-.84.23-1.35l.83.1c.19.01.29.05.29.11,0,.06-.08.14-.23.25-.06.32-.13.62-.19.88h2.77v.75h-2.99c-.12.38-.22.68-.32.89-.21.44-.44.82-.69,1.14-.27.36-.69.79-1.24,1.29l-.76-.58c.63-.53,1.11-1.02,1.46-1.48.23-.32.44-.72.62-1.2,0-.02.01-.05.02-.07h-1.62v-.75ZM120.63,6.86l.77.14c.14.02.2.07.2.14s-.08.14-.24.22l-.98,2.15c.54-.04,1.06-.1,1.57-.16-.14-.34-.29-.65-.43-.94l.63-.44c.37.6.74,1.37,1.1,2.3l-.8.47c-.08-.27-.17-.52-.26-.77-.75.11-1.81.25-3.18.41-.06.09-.12.13-.18.13s-.1-.04-.11-.12l-.22-.76c.3-.02.6-.04.88-.06l1.25-2.74Z"/>
        <path class="cls-2" d="M126.71,8.1l.83.27c.15.03.23.08.23.16,0,.06-.06.11-.17.14-.36.41-.71.73-1.04.98-.37.27-.81.54-1.33.81l-.83-.58c.63-.31,1.1-.59,1.42-.85.31-.25.6-.56.88-.93ZM132.89,2.88c-.16,0-.41.02-.75.07-.8.1-1.69.17-2.68.22l.15.07c.1.05.15.09.15.13,0,.08-.07.14-.22.2l-1.54,1.29c.41.21.78.41,1.12.61.6-.56,1.11-1.1,1.51-1.64l1,.35c.14.04.22.08.22.14,0,.05-.09.12-.27.22-.71.69-1.63,1.44-2.76,2.25,1.11-.06,2.2-.13,3.27-.21-.21-.25-.43-.48-.64-.68l.68-.49c.7.62,1.39,1.41,2.08,2.37l-.88.51c-.22-.36-.44-.69-.67-.99-.75.06-1.69.14-2.79.22v3.2h-.99v-3.13c-1.09.08-2.32.16-3.69.26-.07.11-.14.17-.22.17s-.12-.05-.13-.14l-.26-.91c.96-.03,1.9-.07,2.84-.12.39-.27.73-.53,1.01-.78-.87-.5-1.8-.95-2.77-1.34l.71-.61c.29.12.57.24.83.36l1.29-1.26c-.96.03-1.99.05-3.1.05l-.65-.72c.51.01.91.02,1.21.02,2.43,0,4.65-.15,6.66-.46l.75.66s.06.08.06.16c0,.04-.03.06-.08.06-.08,0-.15-.02-.22-.06-.12-.02-.21-.04-.25-.04ZM131.62,8.1c.67.71,1.57,1.3,2.71,1.79l-.96.61c-.97-.54-1.82-1.19-2.54-1.95l.79-.45Z"/>
        <path class="cls-2" d="M136.03,7.69l.85.22c.09,0,.13.04.13.1s-.07.14-.19.22c-.15.73-.35,1.36-.58,1.89l-.86-.27c.14-.26.26-.53.36-.83.13-.4.23-.84.3-1.33ZM137.37,2.11l.73.32c.11.05.16.09.16.13,0,.08-.07.14-.21.19l-.98,1.16c.27.14.54.28.79.44l.74-.89.7.4c.08.04.12.09.12.16s-.07.11-.22.13l-1.82,2c.48-.04.93-.08,1.36-.13-.07-.17-.15-.34-.23-.49l.88-.17c.32.61.54,1.19.67,1.75l-.9.16c-.06-.22-.12-.42-.19-.61-.25.03-.54.07-.87.11v3.94h-.91v-3.84c-.38.04-.79.09-1.23.15-.07.09-.13.13-.19.13s-.1-.04-.11-.12l-.22-.76c.3-.01.59-.03.86-.05l1.01-1.25c-.68-.41-1.31-.76-1.88-1.05l.54-.6c.12.06.23.12.33.17l1.04-1.4ZM139.32,7.69c.29.66.5,1.29.63,1.9l-.9.16c-.17-.68-.37-1.31-.62-1.89l.88-.17ZM140.88,6.64l1.07.1c.12.02.18.05.18.1,0,.07-.09.16-.27.28,0,1.05-.07,1.76-.2,2.13-.11.32-.28.59-.52.81-.27.26-.65.48-1.13.66l-.71-.69c.46-.15.81-.32,1.04-.51.25-.21.42-.45.51-.74.1-.31.15-.8.15-1.48,0-.14-.04-.37-.11-.67ZM141.87,2.11l.94.07c.17,0,.26.05.26.12,0,.05-.07.12-.21.21v.53h2.53v.67h-2.58l-1.09,1.75c.69-.06,1.36-.12,2.02-.19-.15-.21-.32-.41-.51-.63l.7-.41c.69.79,1.18,1.46,1.46,2.02l-.85.34c-.09-.21-.22-.44-.37-.68-.87.12-2.13.27-3.77.44-.06.1-.13.15-.19.15-.07,0-.11-.04-.12-.12l-.23-.81c.26-.01.51-.03.77-.05l1.17-1.82h-2.28v-.67h2.35v-.94ZM144.12,9.82c.12,0,.22-.02.28-.07.09-.07.17-.31.25-.72l.86.32c-.1.59-.26.94-.47,1.05-.17.11-.49.17-.95.17-.53,0-.87-.07-1.04-.2-.16-.12-.24-.32-.24-.59v-3.15l.85.08c.14,0,.22.03.22.09,0,.06-.05.13-.16.23v2.47c0,.21.13.31.4.31Z"/>
      </g>
      <g>
        <path class="cls-2" d="M150.45,2.94c-.08,0-.17.02-.27.05-.29.1-.58.19-.87.27v1.62h1.68v.76h-1.39c.4.64.86,1.17,1.39,1.57l-.75.7c-.35-.4-.66-.83-.92-1.3v3.92h-.92v-3.61c-.1.25-.19.46-.27.63-.23.47-.55.96-.94,1.46l-.84-.66c.43-.41.79-.85,1.1-1.34.19-.29.41-.74.65-1.37h-1.54v-.76h1.85v-1.4c-.36.07-.73.13-1.1.18l-.66-.77c.71-.04,1.31-.11,1.8-.23.45-.08,1-.25,1.66-.49l.71.61s.06.08.06.15c0,.04-.05.05-.15.05l-.26-.05ZM154.03,2.18l.91.07c.17,0,.25.05.25.12,0,.05-.07.12-.2.21v4.61c.38-.1.75-.2,1.11-.3v.81l-1.11.28v2.57h-.96v-2.32l-2.4.59c-.11.18-.2.27-.28.27-.06,0-.12-.05-.16-.15l-.37-.82c1.08-.19,2.15-.42,3.21-.68V2.18ZM151.8,5.34c.5.29.99.64,1.46,1.06l-.69.54c-.48-.45-.94-.81-1.41-1.07l.64-.52ZM151.96,3.08c.54.28,1.05.62,1.54,1.02l-.69.55c-.51-.44-1.01-.79-1.49-1.05l.64-.52Z"/>
        <path class="cls-2" d="M157.28,3.63h1.61v-1.6l1.05.11c.12.01.18.05.18.13,0,.07-.09.15-.26.24v1.13h1.24v.8h-1.24v1.98c.46-.17.92-.35,1.36-.54v.81l-1.36.54v2.32c0,.38-.12.66-.35.85-.19.18-.67.27-1.46.27l-.4-.86h.8c.27,0,.42-.15.44-.44v-1.77l-1.06.42c-.11.18-.2.27-.28.27-.06,0-.12-.05-.16-.15l-.37-.83c.62-.16,1.24-.35,1.87-.55v-2.32h-1.61v-.8ZM161.39,3.39h2.03v-1.36l.91.07c.17,0,.25.05.25.12,0,.05-.07.12-.2.21v.96h2.2v.76h-2.2v1.51h1.23c.13-.08.2-.12.22-.12.08,0,.15.03.21.09l.5.41c.06.05.08.1.08.16s-.09.14-.28.23c-.43,1.12-.92,1.95-1.45,2.5.56.36,1.26.71,2.11,1.07l-.78.72c-.82-.39-1.5-.78-2.04-1.18-.67.47-1.56.85-2.65,1.15l-.65-.75c.72-.15,1.3-.31,1.74-.48.33-.15.63-.3.88-.47-.12-.12-.23-.23-.33-.34-.52-.53-.89-1.29-1.11-2.26h-.47v-.73h1.82v-1.51h-2.03v-.76ZM162.96,6.4c.2.78.55,1.39,1.03,1.84.07.07.14.12.2.17.03-.03.05-.06.07-.08.37-.42.71-1.06,1.03-1.93h-2.33Z"/>
      </g>
    </g>
    <g>
      <path class="cls-2" d="M169.7,3.13v-.75h3.07v7.37c0,.39-.22.65-.65.76-.33.09-.66.13-1,.13l-.37-.8.78-.02c.22-.02.33-.13.33-.33v-2.01h-1.3c-.04.39-.08.77-.13,1.14-.12.76-.3,1.43-.54,2.02l-.95-.41c.27-.57.46-1.16.56-1.76.14-.75.2-1.51.2-2.26v-3.08ZM170.6,6.73h1.27v-1.47h-1.25v.94c0,.17,0,.35-.01.53ZM170.61,4.52h1.25v-1.39h-1.25v1.39ZM174.22,3.13v-.75h3.16v1.88c0,.3.04.45.12.45h.58c.06,0,.1-.02.14-.08.04-.06.09-.3.15-.71l.91.29c-.16.56-.33.91-.52,1.04-.2.14-.49.21-.87.21h-.49c-.66,0-.99-.33-.99-1v-1.32h-1.25v.6c0,.38-.09.73-.28,1.06-.18.34-.46.64-.84.89l-1-.43c.42-.21.71-.43.87-.67.22-.28.32-.57.3-.86v-.6ZM173.4,5.94h3.96c.14-.08.22-.12.24-.12.08,0,.15.03.22.09l.52.42c.06.05.09.11.09.17s-.1.14-.29.24c-.41,1.08-.87,1.87-1.38,2.36.18.11.36.21.54.29.44.21,1.02.37,1.74.49l-.86.8c-.68-.21-1.26-.46-1.75-.75-.14-.09-.27-.17-.39-.26-.58.38-1.32.7-2.22.95l-.67-.78c.64-.13,1.16-.28,1.55-.44.24-.1.45-.21.64-.32-.08-.09-.16-.17-.23-.24-.34-.4-.61-.84-.8-1.33-.12-.28-.19-.54-.24-.8h-.66v-.75ZM174.89,6.69c.06.24.14.47.26.69.17.37.41.72.75,1.05.04.04.07.07.1.09.05-.05.1-.1.14-.15.33-.36.63-.92.91-1.68h-2.15Z"/>
      <path class="cls-2" d="M182.66,2.04l.9.38c.09.04.14.08.14.12,0,.09-.1.17-.29.22-.34.65-.65,1.2-.94,1.67v6.29h-1v-4.88c-.27.34-.57.69-.89,1.05l-.74-.64c.63-.64,1.16-1.3,1.59-1.95.41-.59.82-1.35,1.22-2.25ZM184.63,3.13l.94.28c.09.03.14.08.14.13,0,.04-.1.08-.31.12-.22.58-.5,1.09-.82,1.52-.31.41-.65.78-1.03,1.1l-.89-.5c.48-.37.87-.75,1.15-1.14.3-.38.57-.88.82-1.52ZM184.14,5.94h4.78c0,1.85-.07,3.02-.2,3.49-.08.47-.26.79-.54.97-.28.18-.78.27-1.48.27l-.48-.84c.74,0,1.17-.05,1.31-.15.13-.08.23-.28.3-.58.1-.31.16-1.11.18-2.41h-1.67c-.06.75-.17,1.35-.32,1.8-.21.54-.46.97-.74,1.29-.29.34-.68.65-1.17.92l-.97-.67c.55-.23.95-.48,1.19-.75.3-.29.53-.65.7-1.08.16-.4.26-.91.31-1.52h-1.21v-.75ZM185.65,2.41h2.66c.09.84.32,1.52.69,2.04.27.37.74.81,1.41,1.33l-.87.54c-.73-.59-1.26-1.15-1.59-1.68-.27-.39-.45-.88-.55-1.47h-1.75v-.75Z"/>
      <path class="cls-2" d="M191.28,3.31h3.43c.22-.4.43-.84.62-1.31l.79.26c.15.04.23.1.23.19,0,.06-.08.1-.23.12-.12.26-.25.51-.37.74h5.28v.75h-5.7c-.23.39-.46.73-.68,1.01h4.98v4.73c0,.41-.24.68-.71.8-.38.09-.76.14-1.14.14l-.39-.84.91-.02c.26-.01.39-.13.39-.35v-.54h-4.2v1.67h-.95v-4.47c-.54.45-1.16.83-1.85,1.16l-.66-.84c.85-.26,1.67-.79,2.46-1.6.27-.25.52-.54.76-.87h-2.95v-.75ZM194.48,6.71h4.2v-.88h-4.2v.88ZM194.48,8.29h4.2v-.86h-4.2v.86Z"/>
      <path class="cls-2" d="M205.52,2.22l.84.58-1.32,2.48c.71.71,1.07,1.36,1.07,1.95,0,.63-.19,1.14-.57,1.51-.39.36-.88.54-1.48.54l-.4-.84c.63-.09,1.04-.24,1.22-.46.18-.19.27-.48.27-.85,0-.45-.36-1.04-1.09-1.77l1.05-2.28h-1.58v7.74h-.95V2.34h2.8c.07-.08.11-.12.14-.12ZM206.64,2.36h4.85v3.87h-1.74c.14.54.31,1,.52,1.4.5-.33.93-.67,1.31-1l.68.58s.05.09.05.13c0,.07-.1.1-.31.1-.43.28-.87.56-1.34.83.37.58.98,1.16,1.83,1.74l-1.03.68c-.52-.5-.95-.96-1.28-1.38-.37-.49-.65-.98-.84-1.46-.19-.39-.36-.93-.51-1.61h-1.23v3.2c.63-.14,1.26-.3,1.86-.49v.73c-.68.24-1.75.55-3.22.95-.07.1-.14.15-.22.15-.07,0-.11-.05-.12-.14l-.25-.86c.34-.04.67-.09,1-.15V2.36ZM207.6,3.93h2.94v-.86h-2.94v.86ZM207.6,5.51h2.94v-.86h-2.94v.86Z"/>
      <path class="cls-2" d="M215.73,3.4l1.09.17c.12.04.17.09.17.15,0,.08-.1.16-.3.23-.28.73-.58,1.28-.89,1.66-.36.48-.91.98-1.65,1.49l-.85-.62c.72-.46,1.27-.94,1.63-1.45.28-.34.54-.89.79-1.64ZM217.35,5.31l1.01.35c.14.04.22.09.22.15,0,.04-.09.12-.27.22-.43,1.01-.99,2.11-1.69,3.3,1.37-.06,2.67-.17,3.9-.31-.4-.51-.8-.98-1.22-1.41l.76-.53c.87.81,1.73,1.84,2.58,3.09l-.96.55c-.19-.33-.39-.64-.6-.95l-6.24.65c-.12.15-.24.23-.36.23-.13,0-.2-.05-.22-.15l-.41-1.08c.58-.01,1.14-.03,1.68-.05.33-.56.61-1.08.82-1.54.41-.85.75-1.69,1.02-2.52ZM216.77,2.39h3.68c.12,1.03.45,1.87,1,2.51.39.45,1.05,1,1.99,1.63l-1,.61c-1.02-.72-1.76-1.4-2.23-2.05-.39-.49-.66-1.13-.8-1.92h-2.64v-.79Z"/>
      <path class="cls-2" d="M225.13,2.45h8.53v7.24c0,.45-.29.74-.88.87-.47.1-.93.15-1.39.15l-.42-.92h1.15c.33-.02.5-.15.5-.4V3.28h-7.49v-.83ZM225.65,4.2h5.71v.79h-5.71v-.79ZM226.01,5.96h4.83v3.08h-3.83v.66h-1v-3.74ZM227.01,8.25h2.88v-1.5h-2.88v1.5Z"/>
    </g>
    <g>
      <path class="cls-3" d="M38.63,7.08c0,.35-.07.66-.2.91-1.06,2.1-2.51,4.31-4.35,6.63-.26.34-.39.65-.39.93,0,.43.03,1.07.08,1.93.05.86.08,1.5.08,1.92,0,.15-.03.24-.1.27-.02,0-.13.03-.33.06-.29.05-1.02.08-2.19.08s-1.93-.03-2.25-.08c-.23-.03-.34-.15-.34-.35,0-.43.04-1.08.11-1.97.08-.88.11-1.54.11-1.98,0-.26-.09-.54-.29-.84-.98-1.39-2.39-3.51-4.22-6.38-.19-.32-.28-.58-.28-.78,0-.49-.02-1.22-.07-2.19-.05-.97-.08-1.7-.08-2.19,0-.27.08-.4.25-.4.5,0,1.24.02,2.25.06,1,.04,1.76.06,2.26.06.19,0,.28.06.28.18,0,.42-.02,1.04-.05,1.87-.03.83-.05,1.45-.05,1.87,0,.24.36.85,1.07,1.83.57.76,1.03,1.36,1.4,1.77.33-.39.77-.97,1.33-1.75.69-.98,1.04-1.57,1.04-1.77,0-.4-.03-1.02-.09-1.84-.06-.82-.09-1.44-.09-1.84,0-.17.04-.27.11-.29h.31c.49,0,1.22-.02,2.19-.07.98-.05,1.71-.07,2.21-.07.16,0,.25.17.25.52,0,.43,0,1.08.02,1.94.02.86.03,1.52.03,1.95Z"/>
      <path class="cls-3" d="M56.87,19.43c0,.15-.1.25-.3.31-.25.07-1,.1-2.26.1-1.16,0-1.91-.03-2.24-.1-.28-.06-.45-.24-.52-.55-.26-1.18-.46-1.82-.61-1.9-.13-.04-1.22-.07-3.27-.07-1.38,0-2.11.04-2.21.11-.14.13-.3.56-.48,1.31-.16.68-.35,1.04-.57,1.1-.28.07-1.2.1-2.78.1-1.24,0-1.86-.12-1.86-.35,0-.21.92-2.8,2.74-7.78,1.98-5.38,3.05-8.34,3.22-8.88.1-.3.21-.45.34-.45.22,0,.56.02,1.03.06.46.04.8.06,1.03.06s.54-.01.97-.04c.43-.03.75-.05.96-.05.16,0,.3.14.43.4.39.85,1.55,3.77,3.47,8.77,1.93,5.03,2.89,7.64,2.89,7.86h0ZM48.24,8.34c-.17.36-.46,1.13-.87,2.33-.42,1.26-.64,2-.64,2.22,0,.15.24.23.72.25.25.02.66.02,1.23.02.53,0,.82-.07.88-.2.01-.04.02-.09.02-.17,0-.27-.18-1-.54-2.21-.37-1.17-.63-1.92-.8-2.25Z"/>
      <path class="cls-3" d="M75.67,19.36c0,.17-.04.28-.11.32-.03.02-.14.04-.34.06-.5.05-1.19.08-2.09.08-1.27,0-2.01-.03-2.24-.08-.22-.05-.33-.16-.33-.33,0-.64.03-1.6.09-2.89.06-1.29.09-2.25.09-2.89,0-.32-.09-.5-.27-.55-.28-.06-1.26-.1-2.95-.1s-2.69.03-2.97.1c-.18.04-.27.22-.27.55,0,.64.02,1.58.06,2.84.04,1.26.06,2.21.06,2.84,0,.25-.11.39-.33.43-.26.05-1.02.08-2.29.08-1.09,0-1.79-.03-2.09-.08-.24-.04-.35-.17-.35-.38,0-.88.04-2.2.12-3.97.08-1.77.12-3.1.12-3.98,0-.94-.04-2.35-.12-4.24-.08-1.89-.12-3.3-.12-4.24,0-.18.09-.27.26-.27.25,0,.63.01,1.13.04.51.02.89.04,1.14.04.26,0,.65-.01,1.18-.04.52-.03.91-.04,1.17-.04.14,0,.21.07.21.22,0,.61-.04,1.52-.12,2.73-.08,1.21-.12,2.12-.12,2.73,0,.29.08.45.23.5.21.06,1.25.1,3.11.1,1.74,0,2.74-.03,3.02-.1.2-.05.29-.22.29-.5,0-.58-.03-1.47-.09-2.65-.06-1.18-.09-2.07-.09-2.66,0-.25.1-.38.3-.38.24,0,.59.01,1.08.04.48.02.85.04,1.09.04s.59-.01,1.08-.04c.48-.03.85-.04,1.09-.04s.35.1.35.29c0,.93-.04,2.34-.11,4.22-.08,1.88-.11,3.29-.11,4.23,0,.88.04,2.21.12,3.98.08,1.77.12,3.09.12,3.97Z"/>
      <path class="cls-3" d="M88.12,2.81l2.56,1.48,3.66,2.11.32.56v8.45l-.32.56-3.66,2.11-3.66,2.11h-.65l-3.66-2.11-3.66-2.11-.33-.56V6.96c.11-.19.22-.37.33-.56l3.66-2.11,2.57-1.48v2.34c-.5.11-.94.27-1.4.51-.36.19-.65.38-.95.6-.33.25-.54.48-.81.75-.43.42-.91,1.2-1.19,1.9-.67,1.69-.55,3.48.24,5.09.65,1.32,1.87,2.43,3.24,2.96,2.08.81,4.3.48,6.06-.83.24-.18.61-.51.81-.74.95-1.08,1.73-2.54,1.61-4.59-.07-1.27-.55-2.45-1.27-3.38-.22-.29-.48-.58-.74-.81-.66-.59-1.62-1.19-2.77-1.46v-2.32h0ZM86.06,11.51h1.27s0-9.37,0-9.37h-1.27s0,9.37,0,9.37h0ZM88.12,7.17v1.4c.28.21.43.28.68.57.69.8.98,1.76.7,2.87-.19.73-.58,1.18-.97,1.54-.41.38-1.05.68-1.81.69-1.37,0-2.51-.97-2.82-2.21-.19-.75-.1-1.52.19-2.15.21-.44.82-1.16,1.2-1.29v-1.43c-.42.09-1.03.48-1.29.68-1.23.98-1.89,2.42-1.6,4.15.35,2.05,2.19,3.5,4.31,3.5,4.02,0,5.99-4.99,2.67-7.65-.21-.17-.93-.62-1.26-.67Z"/>
    </g>
    <text class="cls-1" transform="translate(103.97 19.24)"><tspan class="cls-11" x="0" y="0">Y</tspan><tspan x="3.2" y="0">AHO </tspan><tspan class="cls-6" x="18.64" y="0">S</tspan><tspan x="22" y="0">ys</tspan><tspan class="cls-8" x="28.08" y="0">t</tspan><tspan x="30.35" y="0">em </tspan><tspan class="cls-9" x="40.98" y="0">T</tspan><tspan x="43.85" y="0">echnology Co.,</tspan><tspan class="cls-7" x="86.75" y="0">Lt</tspan><tspan class="cls-5" x="92.03" y="0">d.</tspan></text>
  </g>
</svg>