<?xml version="1.0" encoding="UTF-8"?>
<svg id="_圖層_2" data-name="圖層_2" xmlns="http://www.w3.org/2000/svg" viewBox="0 0 70.87 29.79">
  <defs>
    <style>
      .cls-1 {
        fill: #f39917;
        fill-rule: evenodd;
      }

      .cls-2 {
        fill: #1a476e;
      }
    </style>
  </defs>
  <g>
    <g>
      <path class="cls-2" d="M13.33,27.41h1.07v-.8l.62.04c.11,0,.17.04.17.09,0,.03-.04.08-.13.14v.53h1.16v.52h-1.16v1.02h1.25v.54h-3.22v-.54h1.31v-1.02h-1.07v-.52ZM14.02,24.59h2.13v-.8l.65.05c.12,0,.18.03.18.08,0,.03-.05.08-.14.15v.52h2.31v.52h-2.31v.79h2.88v.54h-6.38v-.54h2.82v-.79h-2.13v-.52ZM16.76,27.41h1.13v-.8l.62.04c.11,0,.17.04.17.09,0,.03-.05.08-.13.14v.53h1.16v.52h-1.16v1.02h1.37v.54h-3.34v-.54h1.31v-1.02h-1.13v-.52Z"/>
      <path class="cls-2" d="M22.18,23.84l.57.23c.06.02.09.05.09.08,0,.06-.06.11-.19.14-.02.03-.05.07-.07.1.34.32.75.58,1.22.78v-.74h1.52v-.67l.62.05c.11,0,.17.03.17.08,0,.03-.04.08-.13.15v.4h1.58v1.24h-.66v-.78h-2.44v.78h-.66v-.33l-.42.38s-.08-.05-.12-.08v.44h-.69v.62h.98v.52h-.98v1.57c.33-.06.65-.12.95-.18v.5c-.49.12-1.26.29-2.31.5-.05.07-.09.1-.15.1-.05,0-.08-.03-.08-.1l-.18-.6c.38-.03.75-.08,1.11-.13v-1.68h-.92v-.52h.92v-.62h-.57v-.37c-.08.07-.16.14-.25.21l-.46-.4c.35-.26.64-.53.88-.79.22-.24.45-.54.67-.91ZM21.36,27.52c.14.34.27.67.38.99l-.48.25c-.12-.34-.26-.68-.41-1.02l.51-.22ZM21.53,25.58h1.62c-.34-.23-.63-.49-.89-.76-.13.15-.25.29-.36.4-.11.12-.24.24-.37.36ZM23.12,27.41l.48.21c.07.03.1.06.1.08,0,.05-.04.09-.13.12l-.38.74-.5-.2.42-.96ZM23.76,26.04h1.26c.06-.27.11-.58.16-.93l.57.07c.13,0,.2.04.2.08,0,.04-.05.1-.16.17-.04.22-.09.43-.13.61h1.92v.52h-2.06c-.08.26-.15.47-.22.62-.14.31-.3.57-.48.79-.19.25-.47.55-.86.89l-.52-.4c.43-.37.77-.71,1.01-1.02.16-.22.3-.5.42-.83,0-.02.01-.03.01-.05h-1.12v-.52ZM25.75,27.1l.53.1c.09.02.14.05.14.1s-.05.1-.16.16l-.68,1.49c.37-.03.73-.07,1.08-.11-.1-.23-.2-.45-.3-.65l.43-.3c.26.41.51.94.76,1.59l-.55.32c-.06-.19-.11-.36-.18-.53-.52.08-1.25.17-2.2.28-.04.06-.08.09-.13.09s-.07-.03-.07-.08l-.15-.52c.21-.01.41-.03.61-.04l.87-1.89Z"/>
      <path class="cls-2" d="M29.95,27.96l.57.19c.1.02.16.05.16.11,0,.04-.04.07-.12.1-.25.28-.49.51-.72.68-.25.19-.56.37-.92.56l-.57-.4c.43-.21.76-.41.98-.59.21-.17.42-.39.61-.64ZM34.21,24.36c-.11,0-.28.01-.52.05-.55.07-1.17.12-1.85.16l.1.05c.07.03.1.06.1.09,0,.05-.05.1-.15.14l-1.07.89c.28.14.54.28.77.42.42-.38.77-.76,1.04-1.13l.69.24c.1.03.15.06.15.1,0,.03-.06.09-.19.16-.49.47-1.13.99-1.91,1.55.76-.04,1.52-.09,2.26-.15-.15-.17-.3-.33-.44-.47l.47-.34c.48.43.96.97,1.44,1.64l-.61.36c-.15-.25-.3-.47-.46-.69-.52.04-1.17.1-1.93.16v2.21h-.69v-2.16c-.76.05-1.6.11-2.55.18-.05.08-.09.12-.15.12s-.08-.03-.09-.1l-.18-.63c.66-.02,1.31-.05,1.96-.08.27-.19.5-.37.7-.54-.6-.34-1.24-.65-1.92-.92l.49-.42c.2.09.39.17.57.25l.89-.87c-.66.02-1.37.03-2.14.03l-.45-.5c.35,0,.63.01.83.01,1.68,0,3.21-.11,4.6-.32l.51.45s.04.05.04.11c0,.03-.02.04-.05.04-.06,0-.1-.01-.15-.04-.08-.02-.14-.03-.17-.03ZM33.34,27.96c.46.49,1.09.9,1.87,1.24l-.66.42c-.67-.37-1.25-.82-1.75-1.35l.54-.31Z"/>
      <path class="cls-2" d="M36.38,27.67l.59.15c.06,0,.09.03.09.07s-.05.1-.13.16c-.1.51-.24.94-.4,1.31l-.6-.19c.09-.18.18-.37.25-.58.09-.28.16-.58.21-.92ZM37.31,23.82l.51.22c.07.03.11.06.11.09,0,.05-.05.09-.14.13l-.68.8c.19.1.37.2.54.3l.51-.61.48.28c.05.03.08.06.08.11s-.05.08-.15.09l-1.26,1.38c.33-.03.64-.06.94-.09-.05-.12-.1-.23-.16-.34l.61-.12c.22.42.37.82.46,1.21l-.62.11c-.04-.15-.08-.29-.13-.42-.17.02-.38.05-.6.08v2.72h-.63v-2.65c-.26.03-.55.06-.85.1-.05.06-.09.09-.13.09s-.07-.03-.07-.08l-.15-.52c.21,0,.41-.02.6-.03l.7-.86c-.47-.28-.9-.52-1.3-.72l.37-.41c.08.04.16.08.23.12l.72-.97ZM38.65,27.67c.2.45.35.89.43,1.31l-.62.11c-.11-.47-.26-.91-.42-1.31l.61-.12ZM39.73,26.95l.74.07c.08.01.13.04.13.07,0,.05-.06.11-.19.19,0,.72-.05,1.21-.14,1.47-.07.22-.19.41-.36.56-.19.18-.45.33-.78.46l-.49-.48c.32-.1.56-.22.72-.35.17-.14.29-.31.35-.51.07-.21.1-.55.1-1.02,0-.1-.02-.25-.07-.46ZM40.41,23.82l.65.05c.12,0,.18.03.18.08,0,.03-.05.08-.14.15v.36h1.74v.47h-1.78l-.75,1.21c.48-.04.94-.08,1.39-.13-.1-.14-.22-.29-.35-.43l.48-.28c.48.54.81,1.01,1.01,1.4l-.59.23c-.06-.15-.15-.3-.25-.47-.6.08-1.47.18-2.6.3-.04.07-.09.1-.13.1-.05,0-.08-.03-.08-.08l-.16-.56c.18,0,.36-.02.53-.03l.81-1.25h-1.57v-.47h1.62v-.65ZM41.97,29.15c.09,0,.15-.01.19-.05.06-.05.12-.21.17-.5l.6.22c-.07.41-.18.65-.33.72-.12.08-.34.12-.66.12-.36,0-.6-.05-.72-.14-.11-.09-.16-.22-.16-.41v-2.17l.59.06c.1,0,.15.02.15.06,0,.04-.04.09-.11.16v1.71c0,.14.09.21.28.21Z"/>
    </g>
    <g>
      <path class="cls-2" d="M46.34,24.4c-.05,0-.12.01-.19.04-.2.07-.4.13-.6.19v1.12h1.16v.53h-.96c.28.44.6.81.96,1.09l-.52.48c-.24-.28-.45-.58-.64-.9v2.71h-.64v-2.49c-.07.17-.13.32-.19.43-.16.33-.38.66-.65,1.01l-.58-.45c.29-.28.55-.59.76-.92.13-.2.28-.51.45-.95h-1.06v-.53h1.27v-.97c-.25.05-.5.09-.76.13l-.46-.53c.49-.03.9-.08,1.25-.16.31-.06.69-.17,1.14-.34l.49.42s.04.06.04.1c0,.02-.03.04-.1.04l-.18-.03ZM48.81,23.87l.63.05c.12,0,.17.03.17.08,0,.03-.05.08-.14.14v3.19c.26-.07.52-.14.77-.21v.56l-.77.19v1.77h-.67v-1.6l-1.66.41c-.07.13-.14.19-.2.19-.04,0-.08-.04-.11-.11l-.25-.57c.75-.13,1.49-.29,2.22-.47v-3.63ZM47.27,26.05c.35.2.68.44,1.01.73l-.48.37c-.33-.31-.65-.56-.97-.74l.44-.36ZM47.38,24.5c.37.19.73.43,1.06.7l-.48.38c-.35-.3-.7-.54-1.03-.72l.44-.36Z"/>
      <path class="cls-2" d="M51.06,24.87h1.11v-1.11l.72.07c.08,0,.12.04.12.09,0,.05-.06.1-.18.16v.78h.85v.55h-.85v1.36c.32-.12.63-.24.94-.37v.56l-.94.37v1.6c0,.26-.08.46-.24.58-.13.13-.47.19-1.01.19l-.28-.59h.55c.19,0,.29-.1.3-.3v-1.22l-.73.29c-.07.13-.14.19-.2.19-.04,0-.08-.04-.11-.11l-.25-.57c.43-.11.86-.24,1.29-.38v-1.6h-1.11v-.55ZM53.89,24.71h1.4v-.94l.63.05c.12,0,.17.03.17.08,0,.03-.05.08-.14.14v.67h1.52v.53h-1.52v1.04h.85c.09-.05.14-.08.15-.08.05,0,.1.02.14.06l.35.28s.06.07.06.11-.07.09-.2.16c-.3.77-.63,1.35-1,1.73.39.25.87.49,1.46.74l-.54.5c-.57-.27-1.04-.54-1.41-.82-.46.32-1.07.59-1.83.79l-.45-.52c.5-.1.9-.21,1.2-.33.23-.1.43-.21.61-.33-.08-.08-.16-.16-.22-.23-.36-.37-.61-.89-.77-1.56h-.33v-.5h1.26v-1.04h-1.4v-.53ZM54.98,26.78c.14.54.38.96.71,1.27.05.05.09.09.14.12.02-.02.04-.04.05-.06.26-.29.49-.73.71-1.33h-1.61Z"/>
    </g>
  </g>
  <g>
    <path class="cls-1" d="M14.73,4.96c0,.35-.07.66-.2.92-1.07,2.11-2.52,4.32-4.36,6.65-.26.34-.39.65-.39.93,0,.43.03,1.07.08,1.93.05.86.08,1.51.08,1.93,0,.15-.03.24-.1.27-.02,0-.13.03-.33.06-.29.05-1.02.08-2.19.08s-1.93-.03-2.26-.08c-.23-.03-.34-.15-.34-.35,0-.43.04-1.09.11-1.97.08-.88.11-1.54.11-1.98,0-.26-.09-.54-.29-.84-.99-1.39-2.39-3.52-4.22-6.39-.19-.32-.28-.58-.28-.78,0-.49-.02-1.22-.07-2.19C.02,2.16,0,1.43,0,.94,0,.67.08.54.25.54c.5,0,1.25.02,2.25.06,1.01.04,1.76.06,2.27.06.19,0,.28.06.28.18,0,.42-.02,1.04-.05,1.87-.03.83-.05,1.46-.05,1.87,0,.24.36.85,1.07,1.83.57.77,1.03,1.36,1.4,1.77.33-.39.77-.97,1.33-1.76.69-.98,1.04-1.57,1.04-1.77,0-.4-.03-1.02-.09-1.85-.06-.82-.09-1.44-.09-1.84,0-.17.04-.27.11-.29h.31c.49,0,1.22-.02,2.2-.07.98-.05,1.71-.07,2.21-.07.16,0,.25.17.25.52,0,.43,0,1.08.02,1.94.02.87.03,1.52.03,1.96Z"/>
    <path class="cls-1" d="M33.01,17.33c0,.15-.1.25-.3.31-.25.07-1,.1-2.27.1-1.17,0-1.91-.03-2.24-.1-.28-.06-.45-.24-.52-.55-.26-1.19-.46-1.82-.61-1.9-.13-.04-1.22-.07-3.27-.07-1.38,0-2.12.04-2.21.11-.14.13-.3.57-.48,1.31-.16.68-.35,1.04-.57,1.1-.28.07-1.2.1-2.78.1-1.24,0-1.86-.12-1.86-.35,0-.21.92-2.81,2.75-7.8,1.98-5.39,3.06-8.36,3.23-8.89.1-.3.21-.45.34-.45.22,0,.57.02,1.03.06.46.04.81.06,1.04.06s.55-.01.98-.04c.43-.03.75-.05.96-.05.16,0,.3.14.43.4.4.85,1.56,3.78,3.48,8.78,1.93,5.04,2.9,7.66,2.9,7.87h0ZM24.37,6.22c-.17.36-.46,1.14-.87,2.33-.43,1.27-.64,2.01-.64,2.22,0,.15.24.23.72.25.25.02.66.02,1.23.02.53,0,.82-.07.88-.2.01-.04.02-.09.02-.17,0-.27-.18-1-.54-2.21-.37-1.17-.63-1.92-.8-2.25Z"/>
    <path class="cls-1" d="M51.84,17.26c0,.17-.04.28-.11.32-.03.02-.14.04-.34.06-.5.05-1.19.08-2.09.08-1.27,0-2.02-.03-2.24-.08-.22-.05-.33-.16-.33-.33,0-.64.03-1.61.09-2.9.06-1.29.09-2.25.09-2.9,0-.32-.09-.5-.27-.55-.28-.06-1.26-.1-2.95-.1s-2.69.03-2.98.1c-.18.04-.27.22-.27.55,0,.64.02,1.59.06,2.85.04,1.27.06,2.21.06,2.85,0,.25-.11.39-.33.43-.26.05-1.02.08-2.29.08-1.09,0-1.79-.03-2.09-.08-.24-.04-.35-.17-.35-.38,0-.88.04-2.2.13-3.97.08-1.77.12-3.1.12-3.99,0-.94-.04-2.36-.12-4.25-.08-1.89-.13-3.31-.13-4.25,0-.18.09-.27.26-.27.25,0,.63.01,1.14.04.51.02.89.04,1.14.04.26,0,.65-.01,1.18-.04.52-.03.92-.04,1.17-.04.14,0,.21.07.21.22,0,.61-.04,1.52-.13,2.74-.08,1.21-.12,2.13-.12,2.73,0,.29.08.45.23.5.21.06,1.25.1,3.12.1,1.74,0,2.75-.03,3.03-.1.2-.05.29-.22.29-.5,0-.58-.03-1.47-.09-2.65-.06-1.18-.09-2.07-.09-2.66,0-.25.1-.38.3-.38.24,0,.59.01,1.08.04.48.02.85.04,1.09.04s.6-.01,1.08-.04c.48-.03.85-.04,1.09-.04s.35.1.35.29c0,.93-.04,2.34-.11,4.23-.08,1.89-.11,3.3-.11,4.24,0,.89.04,2.22.13,3.99.08,1.77.12,3.1.12,3.97Z"/>
    <path class="cls-1" d="M64.31.68l2.56,1.48,3.67,2.12.32.56v8.46l-.32.56-3.67,2.12-3.66,2.12h-.65l-3.66-2.12-3.66-2.12-.33-.56V4.83c.11-.19.22-.37.33-.56l3.66-2.12,2.57-1.49v2.34c-.5.11-.95.27-1.41.51-.36.19-.66.38-.96.61-.33.25-.54.48-.81.75-.43.43-.91,1.2-1.19,1.9-.67,1.69-.55,3.49.24,5.1.65,1.32,1.87,2.43,3.25,2.97,2.09.81,4.3.48,6.07-.84.24-.18.61-.51.82-.74.95-1.08,1.73-2.55,1.62-4.6-.07-1.27-.55-2.45-1.27-3.39-.22-.29-.48-.58-.74-.82-.66-.59-1.63-1.19-2.77-1.47V.68h0ZM62.25,9.39h1.28s0-9.39,0-9.39h-1.28s0,9.39,0,9.39h0ZM64.31,5.05v1.4c.28.21.43.28.68.57.69.8.99,1.76.7,2.88-.19.73-.58,1.18-.97,1.54-.41.38-1.05.68-1.82.69-1.37,0-2.51-.97-2.83-2.22-.19-.75-.1-1.52.19-2.15.21-.44.82-1.16,1.2-1.29v-1.43c-.42.09-1.03.48-1.29.68-1.23.98-1.9,2.42-1.6,4.16.35,2.05,2.2,3.51,4.32,3.51,4.03,0,6-5,2.67-7.66-.21-.17-.93-.62-1.27-.67Z"/>
  </g>
</svg>