<?xml version="1.0" encoding="UTF-8"?>
<svg id="_圖層_2" data-name="圖層_2" xmlns="http://www.w3.org/2000/svg" viewBox="0 0 142.89 106.01">
  <defs>
    <style>
      .cls-1 {
        fill: #f39917;
        fill-rule: evenodd;
      }

      .cls-2 {
        fill: #1a476e;
      }
    </style>
  </defs>
  <g>
    <g>
      <path class="cls-2" d="M38.99,65.8h1.58v-1.18l.91.06c.17.01.25.06.25.13,0,.04-.07.11-.2.21v.78h1.71v.76h-1.71v1.5h1.84v.8h-4.73v-.8h1.93v-1.5h-1.58v-.76ZM40,61.66h3.13v-1.18l.95.08c.18,0,.26.05.26.12,0,.05-.07.12-.21.22v.76h3.39v.76h-3.39v1.16h4.22v.8h-9.37v-.8h4.14v-1.16h-3.13v-.76ZM44.02,65.8h1.66v-1.18l.91.06c.17.01.25.06.25.13,0,.04-.07.11-.2.21v.78h1.71v.76h-1.71v1.5h2.01v.8h-4.9v-.8h1.93v-1.5h-1.66v-.76Z"/>
      <path class="cls-2" d="M51.99,60.56l.83.34c.09.03.13.07.13.11,0,.09-.09.16-.27.2-.04.05-.07.1-.11.15.5.47,1.1.85,1.78,1.15v-1.08h2.23v-.99l.91.07c.17,0,.25.04.25.11,0,.05-.07.12-.2.22v.59h2.32v1.82h-.96v-1.14h-3.59v1.14h-.96v-.48l-.61.56c-.07-.04-.12-.08-.18-.11v.65h-1.01v.91h1.44v.76h-1.44v2.31c.48-.08.95-.17,1.4-.27v.74c-.72.18-1.85.43-3.39.73-.07.1-.14.15-.22.15-.07,0-.11-.05-.12-.14l-.26-.87c.56-.05,1.1-.11,1.63-.19v-2.46h-1.36v-.76h1.36v-.91h-.83v-.54c-.12.11-.24.21-.37.31l-.68-.59c.51-.39.94-.77,1.29-1.16.33-.35.66-.8.98-1.33ZM50.77,65.95c.21.5.4.98.56,1.45l-.71.37c-.18-.5-.38-1-.6-1.5l.75-.32ZM51.03,63.1h2.37c-.5-.34-.93-.71-1.3-1.12-.19.23-.37.42-.53.59-.17.18-.35.35-.55.53ZM53.36,65.8l.71.31c.1.04.15.09.15.12,0,.07-.07.13-.2.18l-.56,1.09-.73-.29.62-1.42ZM54.31,63.79h1.85c.09-.4.16-.85.23-1.37l.84.1c.2.01.3.05.3.11,0,.06-.08.14-.23.26-.07.33-.13.63-.2.89h2.81v.76h-3.03c-.12.39-.23.69-.33.9-.21.45-.44.84-.7,1.16-.28.37-.7.8-1.26,1.31l-.77-.59c.63-.54,1.13-1.04,1.48-1.5.23-.33.44-.73.62-1.22,0-.02.01-.05.02-.07h-1.64v-.76ZM57.22,65.34l.78.14c.14.02.21.07.21.14s-.08.15-.24.23l-1,2.18c.55-.04,1.08-.1,1.59-.16-.15-.34-.29-.66-.44-.95l.63-.45c.38.61.75,1.39,1.12,2.34l-.81.47c-.08-.27-.17-.53-.26-.78-.76.11-1.83.25-3.23.42-.06.09-.12.13-.19.13s-.1-.04-.11-.12l-.22-.77c.31-.02.61-.04.9-.06l1.27-2.77Z"/>
      <path class="cls-2" d="M63.39,66.6l.84.28c.15.03.23.08.23.16,0,.06-.06.11-.17.14-.37.41-.72.74-1.05,1-.37.27-.82.54-1.35.82l-.84-.59c.63-.31,1.12-.6,1.44-.86.31-.25.61-.57.9-.94ZM69.65,61.31c-.16,0-.42.02-.77.07-.81.1-1.71.18-2.71.23l.15.07c.1.05.15.1.15.13,0,.08-.07.14-.22.2l-1.56,1.31c.42.21.79.41,1.14.62.61-.56,1.12-1.12,1.53-1.66l1.02.35c.15.04.22.09.22.14,0,.05-.09.13-.27.23-.72.7-1.66,1.46-2.8,2.28,1.12-.06,2.23-.13,3.31-.22-.22-.25-.43-.49-.65-.69l.69-.49c.71.63,1.41,1.43,2.11,2.4l-.9.52c-.22-.36-.45-.7-.68-1.01-.77.06-1.71.14-2.83.23v3.25h-1.01v-3.17c-1.11.08-2.36.17-3.74.27-.07.11-.14.17-.22.17s-.12-.05-.13-.14l-.26-.92c.97-.03,1.93-.07,2.88-.12.39-.28.74-.54,1.03-.79-.88-.51-1.82-.96-2.81-1.36l.72-.62c.3.13.58.25.84.36l1.31-1.28c-.97.03-2.02.05-3.14.05l-.66-.73c.52.01.93.02,1.23.02,2.47,0,4.72-.15,6.75-.46l.76.66s.07.08.07.16c0,.04-.03.06-.08.06-.08,0-.15-.02-.22-.06-.12-.02-.21-.04-.25-.04ZM68.37,66.6c.68.72,1.59,1.32,2.75,1.81l-.97.62c-.99-.54-1.84-1.2-2.57-1.98l.8-.46Z"/>
      <path class="cls-2" d="M72.84,66.18l.86.22c.09,0,.13.04.13.1s-.07.14-.2.23c-.15.74-.35,1.38-.59,1.92l-.88-.28c.14-.26.26-.54.36-.85.13-.4.23-.85.31-1.35ZM74.19,60.52l.74.32c.11.05.16.09.16.13,0,.08-.07.14-.21.19l-1,1.18c.28.14.54.29.8.45l.75-.9.71.41c.08.04.12.09.12.16s-.07.11-.22.13l-1.85,2.03c.48-.04.94-.08,1.38-.13-.07-.18-.15-.34-.23-.49l.9-.17c.32.61.55,1.21.68,1.78l-.91.16c-.06-.22-.12-.43-.2-.62-.26.03-.55.07-.89.11v4h-.92v-3.89c-.39.04-.8.1-1.25.15-.07.09-.13.13-.2.13s-.1-.04-.11-.12l-.22-.77c.31-.01.6-.03.88-.05l1.03-1.26c-.69-.41-1.33-.77-1.9-1.06l.55-.61c.12.06.24.12.34.17l1.05-1.42ZM76.17,66.18c.3.67.51,1.31.63,1.93l-.91.16c-.17-.69-.38-1.33-.62-1.92l.9-.17ZM77.76,65.12l1.08.1c.12.02.19.05.19.1,0,.07-.09.16-.27.29,0,1.06-.07,1.78-.21,2.16-.11.33-.28.6-.52.82-.28.26-.66.48-1.15.67l-.72-.7c.47-.15.82-.32,1.05-.51.26-.21.43-.46.51-.75.1-.31.15-.81.15-1.5,0-.15-.04-.37-.11-.67ZM78.76,60.52l.95.08c.18,0,.26.05.26.12,0,.05-.07.12-.21.22v.53h2.56v.68h-2.61l-1.1,1.78c.7-.06,1.38-.12,2.05-.19-.15-.21-.32-.42-.51-.64l.71-.42c.7.8,1.19,1.48,1.48,2.05l-.86.34c-.09-.22-.22-.45-.37-.69-.88.12-2.16.27-3.82.45-.07.1-.13.15-.2.15-.07,0-.11-.04-.12-.12l-.23-.82c.26-.01.52-.03.78-.05l1.18-1.84h-2.31v-.68h2.38v-.95ZM81.04,68.34c.12,0,.22-.02.29-.07.09-.07.17-.31.25-.73l.88.32c-.1.6-.26.96-.48,1.06-.18.11-.5.17-.96.17-.53,0-.88-.07-1.05-.2-.16-.13-.24-.33-.24-.6v-3.19l.86.09c.15,0,.22.03.22.1,0,.06-.05.13-.16.23v2.51c0,.21.14.31.4.31Z"/>
    </g>
    <g>
      <path class="cls-2" d="M87.46,61.36c-.08,0-.17.02-.28.06-.29.1-.59.2-.88.28v1.64h1.7v.78h-1.41c.4.65.88,1.18,1.41,1.6l-.77.71c-.36-.41-.67-.85-.94-1.32v3.98h-.94v-3.66c-.1.25-.19.46-.28.64-.23.48-.55.97-.96,1.48l-.85-.66c.43-.41.8-.86,1.12-1.36.19-.29.41-.75.66-1.39h-1.56v-.78h1.87v-1.42c-.37.07-.74.14-1.12.19l-.67-.78c.72-.04,1.32-.11,1.83-.23.45-.09,1.01-.25,1.68-.5l.72.62s.06.09.06.15c0,.04-.05.06-.15.06l-.27-.05ZM91.09,60.59l.92.07c.17,0,.26.05.26.12,0,.05-.07.12-.2.21v4.68c.39-.1.77-.2,1.13-.3v.82l-1.13.29v2.6h-.98v-2.35l-2.43.6c-.11.19-.2.28-.29.28-.06,0-.12-.05-.16-.16l-.37-.83c1.1-.2,2.18-.43,3.25-.69v-5.33ZM88.82,63.8c.51.29,1,.65,1.48,1.07l-.7.54c-.48-.46-.96-.82-1.42-1.09l.65-.53ZM88.99,61.51c.55.28,1.07.63,1.56,1.03l-.7.55c-.52-.44-1.02-.8-1.51-1.06l.65-.53Z"/>
      <path class="cls-2" d="M94.38,62.07h1.64v-1.62l1.06.11c.12.01.18.06.18.13,0,.07-.09.15-.27.24v1.14h1.25v.81h-1.25v2c.47-.17.93-.35,1.38-.54v.82l-1.38.54v2.35c0,.39-.12.67-.35.86-.19.18-.68.28-1.48.28l-.4-.87h.81c.28,0,.43-.15.45-.44v-1.79l-1.07.42c-.11.19-.2.28-.29.28-.06,0-.12-.05-.16-.16l-.37-.84c.63-.17,1.26-.35,1.89-.56v-2.35h-1.64v-.81ZM98.55,61.83h2.06v-1.38l.92.07c.17,0,.26.05.26.12,0,.05-.07.12-.2.21v.98h2.23v.78h-2.23v1.53h1.24c.13-.08.2-.12.22-.12.08,0,.15.03.21.09l.51.41c.06.05.09.1.09.17s-.1.14-.29.23c-.44,1.13-.93,1.98-1.47,2.54.57.36,1.28.72,2.14,1.08l-.79.73c-.83-.39-1.52-.79-2.07-1.2-.68.47-1.58.86-2.69,1.16l-.66-.76c.73-.15,1.32-.31,1.77-.49.34-.15.64-.31.89-.48-.12-.12-.23-.23-.33-.34-.52-.54-.9-1.3-1.13-2.29h-.48v-.74h1.85v-1.53h-2.06v-.78ZM100.14,64.87c.21.79.55,1.41,1.04,1.86.07.07.14.13.2.18.03-.03.05-.06.07-.08.38-.42.72-1.08,1.04-1.96h-2.36Z"/>
    </g>
  </g>
  <g>
    <path class="cls-1" d="M50.78,41.67c0,.35-.07.66-.2.91-1.06,2.1-2.51,4.31-4.35,6.63-.26.34-.39.65-.39.93,0,.43.03,1.07.08,1.93.05.86.08,1.5.08,1.92,0,.15-.03.24-.1.27-.02,0-.13.03-.33.06-.29.05-1.02.08-2.19.08s-1.93-.03-2.25-.08c-.23-.03-.34-.15-.34-.35,0-.43.04-1.08.11-1.97.08-.88.11-1.54.11-1.98,0-.26-.09-.54-.29-.84-.98-1.39-2.39-3.51-4.22-6.38-.19-.32-.28-.58-.28-.78,0-.49-.02-1.22-.07-2.19-.05-.97-.08-1.7-.08-2.19,0-.27.08-.4.25-.4.5,0,1.24.02,2.25.06,1,.04,1.76.06,2.26.06.19,0,.28.06.28.18,0,.42-.02,1.04-.05,1.87-.03.83-.05,1.45-.05,1.87,0,.24.36.85,1.07,1.83.57.76,1.03,1.36,1.4,1.77.33-.39.77-.97,1.33-1.75.69-.98,1.04-1.57,1.04-1.77,0-.4-.03-1.02-.09-1.84-.06-.82-.09-1.44-.09-1.84,0-.17.04-.27.11-.29h.31c.49,0,1.22-.02,2.19-.07.98-.05,1.71-.07,2.21-.07.16,0,.25.17.25.52,0,.43,0,1.08.02,1.94.02.86.03,1.52.03,1.95Z"/>
    <path class="cls-1" d="M69.02,54.02c0,.15-.1.25-.3.31-.25.07-1,.1-2.26.1-1.16,0-1.91-.03-2.24-.1-.28-.06-.45-.24-.52-.55-.26-1.18-.46-1.82-.61-1.9-.13-.04-1.22-.07-3.27-.07-1.38,0-2.11.04-2.21.11-.14.13-.3.56-.48,1.31-.16.68-.35,1.04-.57,1.1-.28.07-1.2.1-2.78.1-1.24,0-1.86-.12-1.86-.35,0-.21.92-2.8,2.74-7.78,1.98-5.38,3.05-8.34,3.22-8.88.1-.3.21-.45.34-.45.22,0,.56.02,1.03.06.46.04.8.06,1.03.06s.54-.01.97-.04c.43-.03.75-.05.96-.05.16,0,.3.14.43.4.39.85,1.55,3.77,3.47,8.77,1.93,5.03,2.89,7.64,2.89,7.86h0ZM60.4,42.93c-.17.36-.46,1.13-.87,2.33-.42,1.26-.64,2-.64,2.22,0,.15.24.23.72.25.25.02.66.02,1.23.02.53,0,.82-.07.88-.2.01-.04.02-.09.02-.17,0-.27-.18-1-.54-2.21-.37-1.17-.63-1.92-.8-2.25Z"/>
    <path class="cls-1" d="M87.82,53.95c0,.17-.04.28-.11.32-.03.02-.14.04-.34.06-.5.05-1.19.08-2.09.08-1.27,0-2.01-.03-2.24-.08-.22-.05-.33-.16-.33-.33,0-.64.03-1.6.09-2.89.06-1.29.09-2.25.09-2.89,0-.32-.09-.5-.27-.55-.28-.06-1.26-.1-2.95-.1s-2.69.03-2.97.1c-.18.04-.27.22-.27.55,0,.64.02,1.58.06,2.84.04,1.26.06,2.21.06,2.84,0,.25-.11.39-.33.43-.26.05-1.02.08-2.29.08-1.09,0-1.79-.03-2.09-.08-.24-.04-.35-.17-.35-.38,0-.88.04-2.2.12-3.97.08-1.77.12-3.1.12-3.98,0-.94-.04-2.35-.12-4.24-.08-1.89-.12-3.3-.12-4.24,0-.18.09-.27.26-.27.25,0,.63.01,1.13.04.51.02.89.04,1.14.04.26,0,.65-.01,1.18-.04.52-.03.91-.04,1.17-.04.14,0,.21.07.21.22,0,.61-.04,1.52-.12,2.73-.08,1.21-.12,2.12-.12,2.73,0,.29.08.45.23.5.21.06,1.25.1,3.11.1,1.74,0,2.74-.03,3.02-.1.2-.05.29-.22.29-.5,0-.58-.03-1.47-.09-2.65-.06-1.18-.09-2.07-.09-2.66,0-.25.1-.38.3-.38.24,0,.59.01,1.08.04.48.02.85.04,1.09.04s.59-.01,1.08-.04c.48-.03.85-.04,1.09-.04s.35.1.35.29c0,.93-.04,2.34-.11,4.22-.08,1.88-.11,3.29-.11,4.23,0,.88.04,2.21.12,3.98.08,1.77.12,3.09.12,3.97Z"/>
    <path class="cls-1" d="M100.27,37.39l2.56,1.48,3.66,2.11.32.56v8.45l-.32.56-3.66,2.11-3.66,2.11h-.65l-3.66-2.11-3.66-2.11-.33-.56v-8.45c.11-.19.22-.37.33-.56l3.66-2.11,2.57-1.48v2.34c-.5.11-.94.27-1.4.51-.36.19-.65.38-.95.6-.33.25-.54.48-.81.75-.43.42-.91,1.2-1.19,1.9-.67,1.69-.55,3.48.24,5.09.65,1.32,1.87,2.43,3.24,2.96,2.08.81,4.3.48,6.06-.83.24-.18.61-.51.81-.74.95-1.08,1.73-2.54,1.61-4.59-.07-1.27-.55-2.45-1.27-3.38-.22-.29-.48-.58-.74-.81-.66-.59-1.62-1.19-2.77-1.46v-2.32h0ZM98.21,46.1h1.27s0-9.37,0-9.37h-1.27s0,9.37,0,9.37h0ZM100.27,41.76v1.4c.28.21.43.28.68.57.69.8.98,1.76.7,2.87-.19.73-.58,1.18-.97,1.54-.41.38-1.05.68-1.81.69-1.37,0-2.51-.97-2.82-2.21-.19-.75-.1-1.52.19-2.15.21-.44.82-1.16,1.2-1.29v-1.43c-.42.09-1.03.48-1.29.68-1.23.98-1.89,2.42-1.6,4.15.35,2.05,2.19,3.5,4.31,3.5,4.02,0,5.99-4.99,2.67-7.65-.21-.17-.93-.62-1.26-.67Z"/>
  </g>
</svg>